<svg xmlns="http://www.w3.org/2000/svg" viewBox="0 0 100 100" width="1024" height="1024">
  <defs>
    <linearGradient id="bg" x1="0" y1="0" x2="0" y2="1">
      <stop offset="0" stop-color="#5C6BC0"/>
      <stop offset="1" stop-color="#3949AB"/>
    </linearGradient>
  </defs>

  <rect width="100" height="100" rx="22" fill="url(#bg)"/>

  <!-- Dashed route between pickup and destination -->
  <path d="M 22 32 Q 52 8 78 64"
        stroke="white" stroke-width="2"
        fill="none" stroke-dasharray="3 2.5"
        stroke-linecap="round" opacity="0.45"/>

  <!-- Pickup pin (passenger, top-left) -->
  <circle cx="22" cy="32" r="6.5" fill="#E53935"/>
  <circle cx="22" cy="32" r="2.6" fill="white"/>

  <!-- Destination flag (bottom-right) -->
  <rect x="76.5" y="56" width="2" height="18" rx="0.5" fill="white"/>
  <path d="M 78.5 56 L 89 60 L 78.5 64 Z" fill="#7E57C2"/>

  <!-- White car (centered) -->
  <g transform="translate(28 38) scale(1.95)">
    <path d="M18.92 6.01C18.72 5.42 18.16 5 17.5 5h-11c-.66 0-1.21.42-1.42 1.01L3 12v8c0 .55.45 1 1 1h1c.55 0 1-.45 1-1v-1h12v1c0 .55.45 1 1 1h1c.55 0 1-.45 1-1v-8l-2.08-5.99zM6.5 16c-.83 0-1.5-.67-1.5-1.5S5.67 13 6.5 13s1.5.67 1.5 1.5S7.33 16 6.5 16zm11 0c-.83 0-1.5-.67-1.5-1.5s.67-1.5 1.5-1.5 1.5.67 1.5 1.5-.67 1.5-1.5 1.5zM5 11l1.5-4.5h11L19 11H5z"
          fill="white"/>
  </g>
</svg>
